<mxfile host="app.diagrams.net" modified="2021-04-05T13:49:20.802Z" agent="5.0 (Macintosh; Intel Mac OS X 10_15_6) AppleWebKit/605.1.15 (KHTML, like Gecko) Version/14.0.3 Safari/605.1.15" etag="5a2nCqBpAi5SVcyc8hhs" version="14.5.7" type="github">
  <diagram id="jDCZgyN6leXXFGcoawIs" name="第 1 页">
    <mxGraphModel dx="4413" dy="729" grid="1" gridSize="10" guides="1" tooltips="1" connect="1" arrows="1" fold="1" page="1" pageScale="1" pageWidth="3300" pageHeight="2339" math="0" shadow="0">
      <root>
        <mxCell id="0" />
        <mxCell id="1" parent="0" />
        <mxCell id="v8LMfuYNd-TfQxV9FASh-9" value="" style="edgeStyle=orthogonalEdgeStyle;rounded=0;orthogonalLoop=1;jettySize=auto;html=1;" edge="1" parent="1" source="v8LMfuYNd-TfQxV9FASh-2" target="v8LMfuYNd-TfQxV9FASh-7">
          <mxGeometry relative="1" as="geometry" />
        </mxCell>
        <mxCell id="v8LMfuYNd-TfQxV9FASh-12" style="edgeStyle=orthogonalEdgeStyle;rounded=0;orthogonalLoop=1;jettySize=auto;html=1;" edge="1" parent="1" source="v8LMfuYNd-TfQxV9FASh-2" target="v8LMfuYNd-TfQxV9FASh-8">
          <mxGeometry relative="1" as="geometry" />
        </mxCell>
        <mxCell id="v8LMfuYNd-TfQxV9FASh-13" style="edgeStyle=orthogonalEdgeStyle;rounded=0;orthogonalLoop=1;jettySize=auto;html=1;" edge="1" parent="1" source="v8LMfuYNd-TfQxV9FASh-2" target="v8LMfuYNd-TfQxV9FASh-6">
          <mxGeometry relative="1" as="geometry" />
        </mxCell>
        <mxCell id="v8LMfuYNd-TfQxV9FASh-2" value="Collection" style="rounded=1;whiteSpace=wrap;html=1;fillColor=#d5e8d4;strokeColor=#82b366;" vertex="1" parent="1">
          <mxGeometry x="320" y="50" width="120" height="40" as="geometry" />
        </mxCell>
        <mxCell id="v8LMfuYNd-TfQxV9FASh-19" style="edgeStyle=orthogonalEdgeStyle;rounded=0;orthogonalLoop=1;jettySize=auto;html=1;" edge="1" parent="1" source="v8LMfuYNd-TfQxV9FASh-6" target="v8LMfuYNd-TfQxV9FASh-14">
          <mxGeometry relative="1" as="geometry" />
        </mxCell>
        <mxCell id="v8LMfuYNd-TfQxV9FASh-20" style="edgeStyle=orthogonalEdgeStyle;rounded=0;orthogonalLoop=1;jettySize=auto;html=1;entryX=0.5;entryY=0;entryDx=0;entryDy=0;" edge="1" parent="1" source="v8LMfuYNd-TfQxV9FASh-6" target="v8LMfuYNd-TfQxV9FASh-18">
          <mxGeometry relative="1" as="geometry" />
        </mxCell>
        <mxCell id="v8LMfuYNd-TfQxV9FASh-27" style="edgeStyle=orthogonalEdgeStyle;rounded=0;orthogonalLoop=1;jettySize=auto;html=1;entryX=0.5;entryY=0;entryDx=0;entryDy=0;" edge="1" parent="1" source="v8LMfuYNd-TfQxV9FASh-6" target="v8LMfuYNd-TfQxV9FASh-25">
          <mxGeometry relative="1" as="geometry">
            <mxPoint x="-120" y="340" as="targetPoint" />
          </mxGeometry>
        </mxCell>
        <mxCell id="v8LMfuYNd-TfQxV9FASh-6" value="Set" style="rounded=1;whiteSpace=wrap;html=1;fillColor=#dae8fc;strokeColor=#6c8ebf;" vertex="1" parent="1">
          <mxGeometry x="-60" y="150" width="120" height="40" as="geometry" />
        </mxCell>
        <mxCell id="v8LMfuYNd-TfQxV9FASh-29" style="edgeStyle=orthogonalEdgeStyle;rounded=0;orthogonalLoop=1;jettySize=auto;html=1;entryX=0.5;entryY=0;entryDx=0;entryDy=0;" edge="1" parent="1" source="v8LMfuYNd-TfQxV9FASh-7" target="v8LMfuYNd-TfQxV9FASh-28">
          <mxGeometry relative="1" as="geometry" />
        </mxCell>
        <mxCell id="v8LMfuYNd-TfQxV9FASh-30" style="edgeStyle=orthogonalEdgeStyle;rounded=0;orthogonalLoop=1;jettySize=auto;html=1;" edge="1" parent="1" source="v8LMfuYNd-TfQxV9FASh-7" target="v8LMfuYNd-TfQxV9FASh-15">
          <mxGeometry relative="1" as="geometry" />
        </mxCell>
        <mxCell id="v8LMfuYNd-TfQxV9FASh-31" style="edgeStyle=orthogonalEdgeStyle;rounded=0;orthogonalLoop=1;jettySize=auto;html=1;" edge="1" parent="1" source="v8LMfuYNd-TfQxV9FASh-7" target="v8LMfuYNd-TfQxV9FASh-16">
          <mxGeometry relative="1" as="geometry" />
        </mxCell>
        <mxCell id="v8LMfuYNd-TfQxV9FASh-7" value="List" style="rounded=1;whiteSpace=wrap;html=1;fillColor=#dae8fc;strokeColor=#6c8ebf;" vertex="1" parent="1">
          <mxGeometry x="320" y="150" width="120" height="40" as="geometry" />
        </mxCell>
        <mxCell id="v8LMfuYNd-TfQxV9FASh-36" style="edgeStyle=orthogonalEdgeStyle;rounded=0;orthogonalLoop=1;jettySize=auto;html=1;" edge="1" parent="1" source="v8LMfuYNd-TfQxV9FASh-8" target="v8LMfuYNd-TfQxV9FASh-34">
          <mxGeometry relative="1" as="geometry" />
        </mxCell>
        <mxCell id="v8LMfuYNd-TfQxV9FASh-37" style="edgeStyle=orthogonalEdgeStyle;rounded=0;orthogonalLoop=1;jettySize=auto;html=1;" edge="1" parent="1" source="v8LMfuYNd-TfQxV9FASh-8" target="v8LMfuYNd-TfQxV9FASh-35">
          <mxGeometry relative="1" as="geometry" />
        </mxCell>
        <mxCell id="v8LMfuYNd-TfQxV9FASh-8" value="Queue" style="rounded=1;whiteSpace=wrap;html=1;fillColor=#dae8fc;strokeColor=#6c8ebf;" vertex="1" parent="1">
          <mxGeometry x="640" y="150" width="120" height="40" as="geometry" />
        </mxCell>
        <mxCell id="v8LMfuYNd-TfQxV9FASh-24" value="" style="edgeStyle=orthogonalEdgeStyle;rounded=0;orthogonalLoop=1;jettySize=auto;html=1;" edge="1" parent="1" source="v8LMfuYNd-TfQxV9FASh-14" target="v8LMfuYNd-TfQxV9FASh-23">
          <mxGeometry relative="1" as="geometry" />
        </mxCell>
        <mxCell id="v8LMfuYNd-TfQxV9FASh-14" value="HashSet" style="rounded=1;whiteSpace=wrap;html=1;fillColor=#d0cee2;strokeColor=#56517e;" vertex="1" parent="1">
          <mxGeometry x="60" y="340" width="120" height="40" as="geometry" />
        </mxCell>
        <mxCell id="v8LMfuYNd-TfQxV9FASh-15" value="ArrayList" style="rounded=1;whiteSpace=wrap;html=1;fillColor=#d0cee2;strokeColor=#56517e;" vertex="1" parent="1">
          <mxGeometry x="320" y="340" width="120" height="40" as="geometry" />
        </mxCell>
        <mxCell id="v8LMfuYNd-TfQxV9FASh-16" value="LinkedList" style="rounded=1;whiteSpace=wrap;html=1;fillColor=#d0cee2;strokeColor=#56517e;" vertex="1" parent="1">
          <mxGeometry x="440" y="340" width="120" height="40" as="geometry" />
        </mxCell>
        <mxCell id="v8LMfuYNd-TfQxV9FASh-17" value="Stack" style="rounded=1;whiteSpace=wrap;html=1;fillColor=#d5e8d4;strokeColor=#82b366;" vertex="1" parent="1">
          <mxGeometry x="200" y="410" width="120" height="40" as="geometry" />
        </mxCell>
        <mxCell id="v8LMfuYNd-TfQxV9FASh-22" value="" style="edgeStyle=orthogonalEdgeStyle;rounded=0;orthogonalLoop=1;jettySize=auto;html=1;" edge="1" parent="1" source="v8LMfuYNd-TfQxV9FASh-18" target="v8LMfuYNd-TfQxV9FASh-21">
          <mxGeometry relative="1" as="geometry" />
        </mxCell>
        <mxCell id="v8LMfuYNd-TfQxV9FASh-18" value="SortedSet" style="rounded=1;whiteSpace=wrap;html=1;fillColor=#d0cee2;strokeColor=#56517e;" vertex="1" parent="1">
          <mxGeometry x="-60" y="340" width="120" height="40" as="geometry" />
        </mxCell>
        <mxCell id="v8LMfuYNd-TfQxV9FASh-21" value="TreeSet" style="rounded=1;whiteSpace=wrap;html=1;fillColor=#d5e8d4;strokeColor=#82b366;" vertex="1" parent="1">
          <mxGeometry x="-60" y="410" width="120" height="40" as="geometry" />
        </mxCell>
        <mxCell id="v8LMfuYNd-TfQxV9FASh-23" value="LinkedHashSet" style="rounded=1;whiteSpace=wrap;html=1;fillColor=#d5e8d4;strokeColor=#82b366;" vertex="1" parent="1">
          <mxGeometry x="60" y="410" width="120" height="40" as="geometry" />
        </mxCell>
        <mxCell id="v8LMfuYNd-TfQxV9FASh-25" value="EnumSet" style="rounded=1;whiteSpace=wrap;html=1;fillColor=#d0cee2;strokeColor=#56517e;" vertex="1" parent="1">
          <mxGeometry x="-180" y="340" width="120" height="40" as="geometry" />
        </mxCell>
        <mxCell id="v8LMfuYNd-TfQxV9FASh-32" value="" style="edgeStyle=orthogonalEdgeStyle;rounded=0;orthogonalLoop=1;jettySize=auto;html=1;" edge="1" parent="1" source="v8LMfuYNd-TfQxV9FASh-28" target="v8LMfuYNd-TfQxV9FASh-17">
          <mxGeometry relative="1" as="geometry" />
        </mxCell>
        <mxCell id="v8LMfuYNd-TfQxV9FASh-28" value="Vector" style="rounded=1;whiteSpace=wrap;html=1;fillColor=#d0cee2;strokeColor=#56517e;" vertex="1" parent="1">
          <mxGeometry x="200" y="340" width="120" height="40" as="geometry" />
        </mxCell>
        <mxCell id="v8LMfuYNd-TfQxV9FASh-33" value="AttributeList" style="rounded=1;whiteSpace=wrap;html=1;fillColor=#d5e8d4;strokeColor=#82b366;" vertex="1" parent="1">
          <mxGeometry x="320" y="410" width="120" height="40" as="geometry" />
        </mxCell>
        <mxCell id="v8LMfuYNd-TfQxV9FASh-34" value="PriorityQueue" style="rounded=1;whiteSpace=wrap;html=1;fillColor=#d0cee2;strokeColor=#56517e;" vertex="1" parent="1">
          <mxGeometry x="700" y="250" width="120" height="40" as="geometry" />
        </mxCell>
        <mxCell id="v8LMfuYNd-TfQxV9FASh-42" style="edgeStyle=orthogonalEdgeStyle;rounded=0;orthogonalLoop=1;jettySize=auto;html=1;entryX=0.5;entryY=0;entryDx=0;entryDy=0;" edge="1" parent="1" source="v8LMfuYNd-TfQxV9FASh-35" target="v8LMfuYNd-TfQxV9FASh-16">
          <mxGeometry relative="1" as="geometry" />
        </mxCell>
        <mxCell id="v8LMfuYNd-TfQxV9FASh-44" value="" style="edgeStyle=orthogonalEdgeStyle;rounded=0;orthogonalLoop=1;jettySize=auto;html=1;" edge="1" parent="1" source="v8LMfuYNd-TfQxV9FASh-35" target="v8LMfuYNd-TfQxV9FASh-43">
          <mxGeometry relative="1" as="geometry" />
        </mxCell>
        <mxCell id="v8LMfuYNd-TfQxV9FASh-35" value="Deque" style="rounded=1;whiteSpace=wrap;html=1;fillColor=#d0cee2;strokeColor=#56517e;" vertex="1" parent="1">
          <mxGeometry x="580" y="250" width="120" height="40" as="geometry" />
        </mxCell>
        <mxCell id="v8LMfuYNd-TfQxV9FASh-43" value="ArrayQueue" style="rounded=1;whiteSpace=wrap;html=1;fillColor=#d5e8d4;strokeColor=#82b366;" vertex="1" parent="1">
          <mxGeometry x="580" y="340" width="120" height="40" as="geometry" />
        </mxCell>
        <mxCell id="v8LMfuYNd-TfQxV9FASh-57" style="edgeStyle=orthogonalEdgeStyle;rounded=0;orthogonalLoop=1;jettySize=auto;html=1;entryX=0.5;entryY=0;entryDx=0;entryDy=0;" edge="1" parent="1" source="v8LMfuYNd-TfQxV9FASh-46" target="v8LMfuYNd-TfQxV9FASh-54">
          <mxGeometry relative="1" as="geometry" />
        </mxCell>
        <mxCell id="v8LMfuYNd-TfQxV9FASh-60" style="edgeStyle=orthogonalEdgeStyle;rounded=0;orthogonalLoop=1;jettySize=auto;html=1;" edge="1" parent="1" source="v8LMfuYNd-TfQxV9FASh-46" target="v8LMfuYNd-TfQxV9FASh-50">
          <mxGeometry relative="1" as="geometry" />
        </mxCell>
        <mxCell id="v8LMfuYNd-TfQxV9FASh-61" style="edgeStyle=orthogonalEdgeStyle;rounded=0;orthogonalLoop=1;jettySize=auto;html=1;entryX=0.5;entryY=0;entryDx=0;entryDy=0;" edge="1" parent="1" source="v8LMfuYNd-TfQxV9FASh-46" target="v8LMfuYNd-TfQxV9FASh-47">
          <mxGeometry relative="1" as="geometry" />
        </mxCell>
        <mxCell id="v8LMfuYNd-TfQxV9FASh-62" style="edgeStyle=orthogonalEdgeStyle;rounded=0;orthogonalLoop=1;jettySize=auto;html=1;" edge="1" parent="1" source="v8LMfuYNd-TfQxV9FASh-46" target="v8LMfuYNd-TfQxV9FASh-51">
          <mxGeometry relative="1" as="geometry" />
        </mxCell>
        <mxCell id="v8LMfuYNd-TfQxV9FASh-63" style="edgeStyle=orthogonalEdgeStyle;rounded=0;orthogonalLoop=1;jettySize=auto;html=1;" edge="1" parent="1" source="v8LMfuYNd-TfQxV9FASh-46" target="v8LMfuYNd-TfQxV9FASh-52">
          <mxGeometry relative="1" as="geometry" />
        </mxCell>
        <mxCell id="v8LMfuYNd-TfQxV9FASh-64" style="edgeStyle=orthogonalEdgeStyle;rounded=0;orthogonalLoop=1;jettySize=auto;html=1;" edge="1" parent="1" source="v8LMfuYNd-TfQxV9FASh-46" target="v8LMfuYNd-TfQxV9FASh-53">
          <mxGeometry relative="1" as="geometry" />
        </mxCell>
        <mxCell id="v8LMfuYNd-TfQxV9FASh-46" value="Map" style="rounded=1;whiteSpace=wrap;html=1;fillColor=#d5e8d4;strokeColor=#82b366;" vertex="1" parent="1">
          <mxGeometry x="230" y="550" width="120" height="40" as="geometry" />
        </mxCell>
        <mxCell id="v8LMfuYNd-TfQxV9FASh-49" value="" style="edgeStyle=orthogonalEdgeStyle;rounded=0;orthogonalLoop=1;jettySize=auto;html=1;" edge="1" parent="1" source="v8LMfuYNd-TfQxV9FASh-47" target="v8LMfuYNd-TfQxV9FASh-48">
          <mxGeometry relative="1" as="geometry" />
        </mxCell>
        <mxCell id="v8LMfuYNd-TfQxV9FASh-47" value="SortedMap" style="rounded=1;whiteSpace=wrap;html=1;fillColor=#b1ddf0;strokeColor=#10739e;" vertex="1" parent="1">
          <mxGeometry x="-70" y="670" width="120" height="40" as="geometry" />
        </mxCell>
        <mxCell id="v8LMfuYNd-TfQxV9FASh-48" value="TreeMap" style="rounded=1;whiteSpace=wrap;html=1;fillColor=#d5e8d4;strokeColor=#82b366;" vertex="1" parent="1">
          <mxGeometry x="-70" y="750" width="120" height="40" as="geometry" />
        </mxCell>
        <mxCell id="v8LMfuYNd-TfQxV9FASh-50" value="WeakHashMap" style="rounded=1;whiteSpace=wrap;html=1;fillColor=#b1ddf0;strokeColor=#10739e;" vertex="1" parent="1">
          <mxGeometry x="50" y="670" width="120" height="40" as="geometry" />
        </mxCell>
        <mxCell id="v8LMfuYNd-TfQxV9FASh-51" value="EnumMap" style="rounded=1;whiteSpace=wrap;html=1;fillColor=#b1ddf0;strokeColor=#10739e;" vertex="1" parent="1">
          <mxGeometry x="290" y="670" width="120" height="40" as="geometry" />
        </mxCell>
        <mxCell id="v8LMfuYNd-TfQxV9FASh-52" value="IdentityHashMap" style="rounded=1;whiteSpace=wrap;html=1;fillColor=#b1ddf0;strokeColor=#10739e;" vertex="1" parent="1">
          <mxGeometry x="410" y="670" width="120" height="40" as="geometry" />
        </mxCell>
        <mxCell id="v8LMfuYNd-TfQxV9FASh-59" value="" style="edgeStyle=orthogonalEdgeStyle;rounded=0;orthogonalLoop=1;jettySize=auto;html=1;" edge="1" parent="1" source="v8LMfuYNd-TfQxV9FASh-53" target="v8LMfuYNd-TfQxV9FASh-58">
          <mxGeometry relative="1" as="geometry" />
        </mxCell>
        <mxCell id="v8LMfuYNd-TfQxV9FASh-53" value="HashTable" style="rounded=1;whiteSpace=wrap;html=1;fillColor=#b1ddf0;strokeColor=#10739e;" vertex="1" parent="1">
          <mxGeometry x="530" y="670" width="120" height="40" as="geometry" />
        </mxCell>
        <mxCell id="v8LMfuYNd-TfQxV9FASh-56" value="" style="edgeStyle=orthogonalEdgeStyle;rounded=0;orthogonalLoop=1;jettySize=auto;html=1;" edge="1" parent="1" source="v8LMfuYNd-TfQxV9FASh-54" target="v8LMfuYNd-TfQxV9FASh-55">
          <mxGeometry relative="1" as="geometry" />
        </mxCell>
        <mxCell id="v8LMfuYNd-TfQxV9FASh-54" value="HashMap" style="rounded=1;whiteSpace=wrap;html=1;fillColor=#b1ddf0;strokeColor=#10739e;" vertex="1" parent="1">
          <mxGeometry x="170" y="670" width="120" height="40" as="geometry" />
        </mxCell>
        <mxCell id="v8LMfuYNd-TfQxV9FASh-55" value="LinkedHashMap" style="rounded=1;whiteSpace=wrap;html=1;fillColor=#d5e8d4;strokeColor=#82b366;" vertex="1" parent="1">
          <mxGeometry x="170" y="750" width="120" height="40" as="geometry" />
        </mxCell>
        <mxCell id="v8LMfuYNd-TfQxV9FASh-58" value="Properties" style="rounded=1;whiteSpace=wrap;html=1;fillColor=#d5e8d4;strokeColor=#82b366;" vertex="1" parent="1">
          <mxGeometry x="530" y="750" width="120" height="40" as="geometry" />
        </mxCell>
      </root>
    </mxGraphModel>
  </diagram>
</mxfile>
